<svg width="26" height="27" viewBox="0 0 26 27" fill="none" xmlns="http://www.w3.org/2000/svg">
<g filter="url(#filter0_d_136320_4630)">
<path fill-rule="evenodd" clip-rule="evenodd" d="M20.0002 8C20.0002 11.3137 17.3139 14 14.0002 14C10.6865 14 8.00019 11.3137 8.00019 8C8.00019 4.68629 10.6865 2 14.0002 2C17.3139 2 20.0002 4.68629 20.0002 8ZM22.0002 8C22.0002 12.4183 18.4185 16 14.0002 16C12.153 16 10.452 15.3739 9.09782 14.3224L5.41617 18.0041L4.00195 16.5898L7.68288 12.9089C6.62828 11.5537 6.00019 9.8502 6.00019 8C6.00019 3.58172 9.58191 0 14.0002 0C18.4185 0 22.0002 3.58172 22.0002 8Z" fill="white"/>
</g>
<defs>
<filter id="filter0_d_136320_4630" x="0" y="0" width="26" height="26.004" filterUnits="userSpaceOnUse" color-interpolation-filters="sRGB">
<feFlood flood-opacity="0" result="BackgroundImageFix"/>
<feColorMatrix in="SourceAlpha" type="matrix" values="0 0 0 0 0 0 0 0 0 0 0 0 0 0 0 0 0 0 127 0" result="hardAlpha"/>
<feOffset dy="4"/>
<feGaussianBlur stdDeviation="2"/>
<feComposite in2="hardAlpha" operator="out"/>
<feColorMatrix type="matrix" values="0 0 0 0 0 0 0 0 0 0 0 0 0 0 0 0 0 0 0.25 0"/>
<feBlend mode="normal" in2="BackgroundImageFix" result="effect1_dropShadow_136320_4630"/>
<feBlend mode="normal" in="SourceGraphic" in2="effect1_dropShadow_136320_4630" result="shape"/>
</filter>
</defs>
</svg>
