<svg width="50" height="50" viewBox="0 0 50 50" fill="none" xmlns="http://www.w3.org/2000/svg">
<path d="M25 50C11.1929 50 9.74778e-06 38.8071 1.03513e-05 25C1.09548e-05 11.1929 11.1929 -1.69631e-06 25 -1.09278e-06C38.8071 -4.89256e-07 50 11.1929 50 25C50 38.8071 38.8071 50 25 50Z" fill="#ECECEC"/>
<path d="M25 50C11.1929 50 9.74778e-06 38.8071 1.03513e-05 25C1.09548e-05 11.1929 11.1929 -1.69631e-06 25 -1.09278e-06C38.8071 -4.89256e-07 50 11.1929 50 25C50 38.8071 38.8071 50 25 50Z" stroke="black"/>
<path d="M26.6667 33.3333L18.3333 25L26.6667 16.6667" stroke="black"/>
</svg>
